<?xml version="1.0" standalone="no"?>
<!DOCTYPE svg PUBLIC "-//W3C//DTD SVG 20010904//EN"
 "http://www.w3.org/TR/2001/REC-SVG-20010904/DTD/svg10.dtd">
<svg version="1.0" xmlns="http://www.w3.org/2000/svg"
 width="900.000000pt" height="900.000000pt" viewBox="0 0 900.000000 900.000000"
 preserveAspectRatio="xMidYMid meet">
<metadata>
Created by potrace 1.15, written by Peter Selinger 2001-2017
</metadata>
<g transform="translate(0.000000,900.000000) scale(0.100000,-0.100000)"
fill="#000000" stroke="none">
<path d="M1680 8480 c0 -36 -2 -40 -25 -40 -22 0 -25 -4 -25 -40 0 -31 -4 -40
-17 -40 -17 -1 -17 -1 0 -14 21 -16 22 -30 1 -22 -13 5 -15 -2 -11 -42 4 -38
3 -43 -5 -24 -6 12 -15 22 -20 22 -4 0 -8 -10 -8 -22 0 -13 -5 -30 -10 -38 -7
-11 -10 -5 -10 23 0 20 -4 37 -10 37 -5 0 -10 -18 -10 -40 0 -38 -2 -40 -30
-40 -29 0 -30 -1 -31 -52 0 -29 -3 -47 -6 -40 -2 6 -9 12 -14 12 -14 0 -11
-78 4 -84 6 -3 -1 -2 -17 1 l-29 6 5 -50 c5 -49 4 -49 -18 -39 -17 8 -24 22
-27 51 -3 22 -5 -5 -4 -60 0 -123 -3 -174 -10 -157 -2 6 -11 12 -19 12 -8 0
-14 -6 -14 -12 0 -9 -4 -8 -10 2 -18 26 -29 -8 -27 -82 2 -57 -1 -68 -14 -68
-11 0 -20 -15 -27 -47 -5 -27 -17 -74 -26 -106 -19 -68 -21 -101 -6 -77 8 13
10 12 10 -3 0 -14 -5 -17 -21 -12 -15 5 -22 2 -26 -14 -7 -27 -23 -27 -23 -1
0 12 -7 20 -16 20 -14 0 -16 -8 -11 -47 12 -93 17 -190 8 -158 -8 28 -9 27
-10 -15 0 -32 2 -41 9 -30 7 11 10 4 10 -25 0 -31 -3 -37 -11 -25 -9 12 -10
11 -6 -6 4 -17 1 -20 -15 -16 -20 5 -20 2 -13 -77 5 -57 4 -81 -4 -81 -7 0
-11 28 -11 80 0 73 -2 80 -20 80 -19 0 -20 -6 -18 -82 1 -46 3 -64 5 -40 2 23
8 42 14 42 12 0 12 -477 0 -482 -5 -1 -11 -37 -14 -78 -2 -41 -2 -58 0 -37 2
20 8 37 14 37 5 0 9 -52 9 -120 0 -100 -2 -120 -15 -120 -8 0 -15 -7 -15 -15
0 -8 6 -14 13 -13 8 2 12 -15 12 -62 0 -36 2 -85 4 -110 3 -41 5 -37 16 40
l12 85 2 -122 c1 -110 9 -147 25 -110 3 6 2 -1 -1 -17 -4 -20 -3 -27 6 -22 8
5 11 -7 11 -41 0 -26 3 -58 6 -70 4 -13 2 -23 -4 -23 -6 0 -13 12 -15 28 -2
15 -2 -2 1 -38 2 -36 9 -66 13 -68 5 -2 9 -21 9 -43 0 -34 3 -39 24 -39 23 0
30 15 38 78 2 17 8 15 24 -5 17 -23 17 -34 0 -27 -23 9 -29 -14 -30 -125 -1
-104 -1 -105 -26 -111 -14 -3 -29 -16 -35 -28 -5 -12 -13 -22 -17 -22 -5 0 -8
-19 -7 -42 0 -33 2 -38 9 -23 7 16 9 17 9 3 1 -9 7 -19 14 -22 6 -2 -5 -2 -26
0 -32 5 -42 1 -62 -20 -20 -22 -23 -34 -21 -96 1 -56 -1 -68 -10 -56 -21 30
-35 18 -32 -26 3 -38 28 -69 28 -34 0 9 5 16 10 16 6 0 15 10 20 23 6 16 9 17
9 5 1 -9 -5 -23 -12 -30 -7 -7 -16 -21 -20 -30 -3 -10 -14 -18 -22 -18 -9 0
-14 4 -10 9 3 5 1 12 -5 16 -5 3 -10 24 -10 46 0 24 -5 39 -12 39 -9 0 -13
-15 -11 -45 1 -44 -9 -66 -22 -45 -12 19 -45 11 -45 -10 0 -11 -4 -20 -10 -20
-5 0 -10 -9 -10 -20 0 -14 -7 -20 -24 -20 -22 0 -24 -5 -31 -74 -4 -50 -3 -82
5 -96 6 -12 9 -25 5 -28 -3 -3 -8 4 -12 16 -6 24 -38 30 -46 10 -4 -10 -6 -10
-6 0 -1 6 -10 12 -21 12 -15 0 -21 -9 -26 -40 -4 -24 -12 -40 -20 -40 -8 0
-14 -4 -14 -10 0 -14 -37 -12 -44 3 -3 6 -3 -1 1 -18 3 -16 12 -35 19 -41 12
-10 11 -13 -7 -17 -14 -4 -20 -11 -16 -21 8 -21 -2 -20 -25 1 -17 15 -19 15
-38 -2 -12 -11 -20 -28 -19 -39 4 -52 0 -56 -41 -56 -33 0 -40 -3 -40 -19 0
-11 6 -22 13 -24 6 -3 2 -6 -10 -6 -12 -1 -25 -5 -28 -11 -3 -5 -17 -10 -31
-10 -31 0 -33 -33 -2 -48 18 -8 10 -10 -40 -5 l-62 6 0 -47 0 -47 -36 3 c-25
2 -39 -2 -42 -11 -3 -10 2 -12 20 -8 18 5 30 1 43 -13 10 -11 22 -17 26 -14 5
3 9 1 9 -3 0 -5 -14 -14 -31 -20 -27 -10 -29 -10 -18 3 10 13 10 17 -2 25 -21
13 -44 6 -43 -14 2 -16 -23 -23 -63 -18 -6 1 -14 -3 -18 -9 -3 -5 1 -10 9 -10
9 0 16 -4 16 -10 0 -11 -60 -2 -74 11 -15 14 -36 11 -36 -5 0 -8 6 -17 13 -19
9 -4 9 -6 0 -6 -7 -1 -13 -6 -13 -12 0 -13 -38 -49 -52 -49 -13 0 -10 18 5 23
6 3 2 6 -10 6 -18 1 -23 -5 -23 -24 0 -14 5 -25 11 -25 8 0 7 -5 -1 -15 -17
-20 -5 -32 15 -15 13 10 18 11 28 1 9 -10 9 -12 -3 -10 -36 6 -50 -12 -50 -62
0 -27 5 -50 10 -50 6 -1 14 -2 19 -3 23 -3 21 -16 -2 -16 -22 0 -27 -5 -27
-24 0 -18 6 -26 22 -28 28 -4 36 -28 9 -28 -11 0 -23 -4 -26 -10 -4 -6 6 -10
24 -10 16 0 33 5 36 10 4 6 15 0 27 -15 11 -14 30 -25 44 -25 15 0 24 -6 24
-16 0 -12 -6 -15 -20 -10 -11 3 -29 9 -40 12 -14 4 -20 2 -20 -9 0 -16 40 -27
96 -27 25 0 34 4 34 17 0 9 12 -1 30 -25 21 -30 37 -42 55 -42 14 0 25 -5 25
-10 0 -6 -15 -8 -40 -4 -27 4 -40 3 -40 -5 0 -7 19 -11 48 -11 39 0 49 -4 57
-22 6 -13 19 -25 30 -27 11 -2 23 -8 27 -15 4 -6 15 -11 25 -12 46 -3 53 -5
53 -18 0 -8 7 -16 15 -20 8 -3 15 -15 15 -26 0 -18 4 -20 38 -15 20 3 31 2 25
-1 -14 -6 -17 -42 -7 -68 7 -17 60 -23 66 -7 2 5 15 13 31 16 22 6 26 4 21 -8
-4 -11 2 -16 18 -19 19 -2 23 -9 23 -38 l0 -35 48 1 c26 0 42 -3 35 -7 -19
-12 2 -29 45 -36 32 -5 37 -3 37 13 0 11 -10 24 -21 29 -20 9 -29 28 -11 23 4
-2 6 -6 5 -10 -2 -5 3 -8 11 -8 22 0 41 -29 28 -42 -18 -18 -14 -46 6 -51 14
-4 14 -6 -5 -12 -55 -18 -4 -66 66 -64 l36 1 -40 12 c-41 12 -54 38 -23 44 12
2 18 -3 18 -14 0 -10 3 -14 8 -10 4 4 7 11 7 15 0 9 31 41 39 41 13 0 5 -28
-9 -34 -8 -3 -15 -13 -15 -22 0 -13 6 -15 33 -10 27 5 29 4 16 -7 -14 -10 -14
-14 -3 -25 7 -6 20 -12 29 -12 22 0 19 -18 -5 -25 -11 -3 -20 -12 -20 -19 0
-9 24 -12 90 -12 50 1 86 -1 80 -2 -14 -5 -12 -39 3 -46 10 -5 10 -7 0 -12
-26 -12 -12 -19 27 -16 35 4 41 1 50 -23 13 -34 51 -31 61 5 5 18 7 11 8 -27
1 -55 16 -73 60 -73 28 0 27 -24 -1 -39 -20 -10 -15 -11 29 -7 62 6 88 -11 79
-53 -3 -14 -3 -20 0 -13 3 6 20 12 37 11 l32 -1 -30 -14 -30 -14 38 2 c32 2
40 -2 50 -22 7 -14 23 -26 35 -28 12 -2 22 -10 22 -18 0 -8 7 -14 15 -14 11 0
15 -11 15 -40 0 -36 3 -40 24 -40 13 0 27 6 29 13 4 9 6 9 6 0 1 -7 10 -13 22
-13 11 0 17 5 14 10 -3 6 -2 10 4 10 5 0 16 3 25 6 9 3 16 1 16 -5 0 -6 -7
-11 -16 -11 -13 0 -13 -2 -2 -13 7 -7 21 -16 31 -20 24 -9 22 -26 -3 -20 -14
4 -20 0 -20 -11 0 -17 40 -31 68 -24 15 4 16 -1 13 -39 l-3 -45 83 4 c82 3 84
3 81 -19 -3 -18 2 -23 18 -23 13 0 24 8 27 20 3 11 9 20 14 20 12 0 11 -27 -1
-35 -15 -9 -12 -35 4 -35 8 0 17 5 19 10 3 6 4 5 3 -2 -10 -43 47 -66 64 -26
7 20 9 20 9 4 1 -10 -6 -24 -16 -31 -24 -18 -10 -48 19 -41 13 3 17 3 11 0 -7
-3 -13 -23 -13 -45 l0 -40 97 5 c56 3 99 10 103 17 5 7 10 8 14 1 3 -6 -8 -15
-24 -21 -35 -12 -39 -27 -10 -36 28 -9 63 4 56 20 -3 9 0 12 10 8 7 -3 14 -9
14 -13 0 -14 -58 -32 -79 -25 -15 5 -21 2 -21 -9 0 -12 11 -16 46 -16 27 0 43
-4 39 -10 -10 -17 6 -80 21 -80 16 0 19 21 4 36 -7 7 -1 9 19 6 18 -2 33 -12
36 -23 4 -10 12 -19 18 -19 7 0 4 -5 -5 -11 -10 -5 -18 -20 -18 -33 0 -27 32
-37 102 -31 23 2 35 1 26 -2 -13 -3 -18 -15 -18 -44 0 -37 2 -39 31 -39 19 0
37 7 45 18 12 16 14 16 33 -5 12 -12 21 -29 21 -38 0 -22 37 -55 63 -55 12 0
28 9 35 20 7 11 18 20 25 19 9 0 9 -2 0 -6 -16 -6 -40 -61 -41 -93 -1 -19 1
-21 8 -10 8 12 13 13 30 2 24 -15 26 -5 3 20 -11 12 -12 18 -4 18 23 0 50 -43
44 -69 -4 -14 0 -27 8 -32 11 -7 11 -11 2 -17 -7 -4 5 -8 27 -8 25 -1 37 2 33
9 -3 6 -1 7 5 3 6 -4 8 -14 5 -24 -6 -15 -5 -15 10 -3 15 12 17 11 17 -2 0 -9
-7 -20 -17 -25 -10 -6 -14 -16 -10 -26 8 -20 36 -21 43 -1 4 8 11 15 16 15 6
0 7 -7 4 -16 -4 -11 -2 -15 8 -11 11 4 13 1 9 -10 -4 -11 -2 -14 5 -9 15 9 16
-6 1 -21 -6 -6 -9 -19 -7 -29 3 -17 5 -17 26 4 27 27 32 28 32 1 0 -15 5 -19
16 -15 8 3 12 2 9 -4 -3 -5 4 -14 15 -20 13 -7 19 -18 16 -26 -3 -9 4 -19 19
-26 18 -8 25 -20 27 -47 3 -32 6 -36 33 -37 17 0 35 -1 41 -2 6 -1 9 -24 8
-57 -2 -47 2 -60 21 -81 18 -20 31 -24 54 -21 23 4 31 1 31 -10 0 -11 -3 -13
-13 -5 -10 8 -12 2 -12 -28 0 -30 2 -36 12 -28 9 7 13 7 13 -1 0 -17 31 -13
52 6 10 9 18 11 18 5 0 -6 -4 -14 -10 -17 -5 -3 -10 -18 -10 -32 0 -22 2 -24
15 -13 22 19 44 -3 25 -25 -11 -13 -8 -15 17 -15 27 0 28 -2 25 -40 -3 -31 -1
-40 11 -40 11 0 13 6 9 22 -5 22 -5 22 26 -2 19 -16 31 -35 32 -50 0 -19 3
-21 9 -11 16 25 71 -40 71 -83 0 -32 3 -36 25 -36 14 0 25 5 25 12 0 6 9 1 20
-12 13 -15 18 -31 14 -46 -5 -19 -1 -24 20 -30 15 -3 35 -4 46 -1 11 3 18 1
15 -3 -7 -11 27 -30 54 -30 12 0 21 -5 21 -11 0 -5 4 -8 9 -4 5 3 12 1 16 -5
3 -6 -4 -10 -17 -10 -13 0 -30 -5 -38 -10 -11 -7 -4 -10 28 -10 23 0 42 4 42
9 0 5 9 11 20 14 11 3 20 1 20 -4 0 -5 -5 -9 -12 -9 -6 0 0 -9 13 -21 17 -14
32 -19 51 -15 31 6 38 -8 11 -19 -17 -6 -17 -7 1 -20 12 -9 44 -14 93 -13 42
0 78 -4 82 -9 9 -15 231 -38 240 -26 3 6 41 14 84 18 42 4 77 11 77 15 0 5 9
6 20 3 14 -4 20 0 20 11 0 20 16 21 24 1 3 -9 17 -15 33 -14 l28 1 -25 7 c-22
7 -20 9 19 16 42 7 44 8 25 22 -17 13 -15 13 22 8 34 -6 45 -3 72 20 25 21 35
25 46 16 15 -13 29 0 31 29 4 45 6 49 20 44 9 -4 19 3 26 20 15 32 31 34 24 3
-6 -22 -3 -24 45 -26 l52 -2 -2 43 c-3 60 -2 64 12 50 19 -19 48 -15 48 8 0
11 5 20 11 20 6 0 9 10 7 23 -4 20 -1 23 21 20 l26 -3 -26 12 c-29 15 -28 38
2 38 32 0 59 19 59 40 0 11 5 20 10 20 6 0 10 -7 10 -15 0 -18 31 -20 48 -3
18 18 14 45 -8 51 -25 6 -27 25 -2 23 11 -1 16 5 15 19 -2 18 -1 18 9 -2 7
-16 20 -23 39 -23 24 0 28 5 34 40 7 39 8 40 46 40 39 0 39 0 39 39 0 22 -5
42 -12 44 -10 4 -10 6 0 6 7 1 12 15 12 35 0 35 29 73 37 48 3 -6 11 -12 18
-12 14 0 24 29 26 75 0 17 3 24 6 18 2 -7 15 -13 28 -13 26 0 45 25 45 61 0
16 -5 20 -20 16 -11 -3 -18 -2 -15 3 8 12 44 19 51 9 11 -18 44 -10 44 11 0
11 5 20 11 20 6 0 9 10 7 22 -4 21 -1 23 39 19 l43 -3 0 81 0 81 65 0 65 0 0
40 c0 38 2 40 29 40 16 0 32 6 35 13 5 9 7 9 12 0 14 -30 29 -11 31 38 1 42
-2 50 -15 47 -10 -2 -16 -11 -14 -21 3 -20 -13 -23 -21 -4 -6 16 40 59 47 43
2 -6 5 1 5 17 1 18 7 27 19 28 9 1 35 2 57 3 78 4 85 6 85 21 0 8 -7 15 -15
15 -18 0 -20 19 -2 26 16 6 20 44 5 44 -6 0 -9 2 -6 5 3 3 13 3 22 -1 13 -5
14 -9 5 -20 -15 -18 9 -19 46 -2 19 9 25 19 25 44 0 33 1 34 40 30 34 -4 40
-1 40 15 0 13 -5 17 -17 13 -17 -5 -17 -5 0 9 9 8 17 24 17 37 0 16 3 20 13
13 6 -5 42 -11 80 -12 60 -1 67 0 67 18 0 10 -7 21 -15 25 -18 7 -20 32 -2 38
6 2 31 3 55 3 45 -1 61 22 22 32 -24 6 -27 23 -4 23 15 0 53 30 37 30 -19 1
24 20 45 20 31 0 27 -18 -5 -23 -16 -2 2 -5 40 -6 l67 -1 0 53 c0 41 -5 56
-21 71 -26 22 -50 7 -29 -19 10 -12 10 -15 -4 -15 -9 0 -16 7 -16 16 0 9 -5
13 -12 9 -7 -4 -2 3 12 14 30 24 49 27 56 6 9 -22 34 -18 59 9 15 17 30 23 51
20 35 -4 64 4 64 17 0 7 -12 8 -30 4 -17 -4 -30 -2 -30 3 0 5 14 12 30 16 33
6 40 22 13 29 -22 6 54 10 127 7 44 -1 53 1 43 11 -7 6 -29 15 -50 19 -21 4
-31 9 -23 12 8 3 29 10 45 15 17 5 29 14 28 20 -1 5 17 9 40 9 l42 -1 -2 43
-2 43 41 -3 c28 -2 42 1 46 11 3 10 -2 12 -19 8 -16 -4 -32 1 -48 14 -13 11
-22 21 -20 22 2 1 13 9 23 17 17 14 18 13 12 -7 -5 -16 -2 -23 13 -28 26 -8
44 3 37 21 -6 16 4 17 102 15 l63 -2 -2 51 c-2 34 -7 50 -16 50 -7 0 -13 5
-13 10 0 7 6 7 19 0 23 -12 51 -3 51 16 0 8 9 14 20 14 11 0 20 5 20 10 0 6 6
10 13 10 7 0 19 9 27 20 17 23 40 26 40 5 0 -9 -6 -12 -15 -9 -8 4 -15 1 -15
-5 0 -15 50 -14 83 2 36 16 34 41 -5 61 l-33 17 33 -6 c31 -6 32 -5 27 17 -6
22 -4 24 27 21 18 -2 40 1 48 7 13 9 13 11 0 20 -13 8 -12 10 5 11 11 1 27 2
36 1 9 -1 20 9 24 21 l8 22 4 -22 c5 -26 26 -29 66 -10 32 14 36 42 7 50 -11
3 -20 13 -20 24 0 15 2 16 10 3 7 -10 12 -11 18 -4 4 6 26 10 50 9 27 -1 42 3
42 11 0 7 -14 12 -36 11 -19 -1 -38 4 -42 9 -4 6 -14 14 -22 17 -12 4 -11 6 3
6 9 1 26 -5 37 -11 22 -14 57 0 52 21 -1 8 11 9 36 5 39 -6 39 -6 45 32 4 23
2 41 -5 45 -6 4 16 5 48 4 77 -4 124 4 124 21 0 8 -7 14 -15 14 -19 0 -19 19
0 26 8 4 12 11 8 17 -3 6 -1 7 6 3 6 -4 18 -3 25 3 10 8 22 8 40 1 15 -5 43
-10 62 -10 33 0 34 1 34 40 0 35 3 40 23 41 21 1 21 1 -4 12 -29 14 -28 37 2
37 11 0 30 5 41 11 17 9 18 13 7 20 -9 6 4 9 39 9 40 0 52 4 52 15 0 11 -7 14
-24 9 -14 -3 -33 -1 -43 5 -15 9 -13 10 12 6 17 -3 37 -1 45 5 13 9 13 12 -1
23 -13 10 2 11 78 9 l95 -3 -3 47 c-3 42 0 48 24 61 15 7 25 18 22 23 -4 6 4
10 15 10 19 0 21 4 16 25 -5 19 -3 23 9 19 8 -3 13 -9 10 -14 -2 -4 21 -7 53
-7 45 -1 50 1 22 6 -26 4 -35 11 -35 26 0 13 -6 20 -17 19 -10 -1 -18 2 -18 7
0 15 38 10 44 -6 3 -8 17 -15 31 -15 18 0 25 5 25 20 0 11 -6 20 -13 20 -7 0
-13 9 -14 20 -2 25 14 27 20 3 3 -10 5 17 6 60 1 71 -1 78 -17 73 -10 -4 -27
1 -38 9 -18 14 -16 15 19 9 36 -6 37 -6 37 25 0 29 -2 31 -36 31 -21 0 -33 -4
-29 -10 3 -6 1 -10 -4 -10 -6 0 -11 7 -11 15 0 11 -12 15 -42 16 -24 1 -33 4
-20 6 30 6 28 31 -4 39 -27 7 -22 18 11 28 11 3 -9 4 -44 2 -49 -2 -60 0 -43
7 28 13 28 23 0 32 l-23 8 23 4 c12 2 22 9 22 14 0 11 -76 12 -83 2 -2 -5 -2
-2 -1 5 2 6 -3 12 -11 12 -11 0 -15 11 -15 40 0 35 -3 40 -23 40 -15 0 -28 -8
-34 -22 -6 -15 -12 -18 -17 -10 -4 7 -2 12 3 12 6 0 11 5 11 10 0 6 -15 10
-34 10 -19 0 -36 4 -38 8 -1 4 -18 18 -36 31 -18 13 -31 25 -28 28 7 7 -14 27
-36 36 -25 9 -23 26 2 20 14 -4 20 0 20 11 0 19 -40 31 -75 22 -19 -5 -23 -3
-19 8 3 8 -3 19 -15 26 -26 13 -27 37 -3 43 9 3 1 5 -20 6 l-36 1 5 42 6 41
-38 -6 c-21 -4 -41 -11 -44 -16 -3 -5 -4 34 -2 86 l3 95 -44 -3 c-39 -3 -44
-2 -40 13 2 10 1 29 -2 43 -5 21 -12 25 -45 25 l-38 0 5 81 5 81 -46 -3 c-25
-2 -43 0 -40 4 3 5 2 24 -1 43 -7 33 -30 47 -39 22 -3 -10 -7 -10 -20 1 -13
10 -17 30 -17 77 0 69 -12 82 -29 34 -5 -16 -15 -30 -21 -30 -7 0 -8 6 0 19 5
11 10 31 10 45 0 21 -5 26 -25 26 -16 0 -25 6 -25 15 0 8 -9 15 -19 15 -12 0
-21 9 -25 26 -6 23 -10 25 -38 19 l-31 -7 20 21 c13 14 18 30 15 46 -3 20 0
25 17 25 22 0 37 36 28 69 -3 14 0 17 14 14 10 -3 19 -12 21 -22 2 -9 4 12 3
46 0 35 -3 63 -7 63 -5 0 -8 9 -8 20 0 11 5 20 10 20 15 0 12 19 -5 36 -9 9
-15 34 -15 59 0 25 -5 45 -12 47 -8 3 -7 10 4 26 l15 22 0 -27 c1 -52 18 -126
31 -131 9 -3 12 21 14 95 1 65 3 79 5 41 2 -32 8 -58 13 -58 6 0 10 -18 10
-40 0 -29 4 -40 15 -40 13 0 15 28 13 203 l-2 202 -3 -162 c-2 -99 -7 -163
-13 -163 -15 0 -7 307 8 322 7 7 12 27 12 45 0 18 5 33 10 33 6 0 10 18 10 40
0 22 -4 40 -10 40 -6 0 -10 73 -10 200 0 127 4 200 10 200 6 0 10 18 10 40 0
22 -4 40 -10 40 -6 0 -11 62 -12 163 -2 148 -2 154 -8 62 -3 -68 -8 -94 -14
-82 -5 10 -6 46 -2 79 3 33 3 105 -1 159 -6 94 -7 99 -28 99 -23 0 -25 5 -39
100 -5 33 -5 33 3 5 8 -27 9 -25 10 21 0 27 -4 55 -11 62 -9 9 -9 15 0 24 16
16 15 28 -3 28 -11 0 -15 11 -15 40 0 38 -2 40 -30 40 l-30 0 0 80 c0 44 -4
80 -9 80 -4 0 -11 -33 -14 -72 -7 -88 -14 -109 -34 -101 -11 4 -11 8 -3 13 13
8 29 76 30 128 0 22 -5 32 -15 32 -8 0 -15 -6 -15 -14 0 -8 -4 -17 -8 -20 -5
-3 -7 29 -5 70 1 41 -1 74 -6 74 -15 0 -25 40 -22 88 2 39 1 42 -23 42 -25 0
-26 2 -26 63 -1 91 -29 120 -76 76 l-23 -21 11 35 c6 19 8 47 4 62 -6 25 -10
27 -45 22 -35 -4 -38 -3 -33 19 4 20 0 24 -22 24 -15 0 -25 4 -22 9 3 5 15 7
26 4 18 -5 19 -1 16 42 -4 58 -20 77 -41 49 -14 -18 -14 -18 -15 0 0 10 -5 16
-12 13 -9 -3 -13 8 -13 37 0 39 -1 41 -32 41 -22 0 -37 8 -53 28 -13 16 -31
27 -46 27 -41 0 -26 19 19 23 23 2 4 4 -42 5 l-83 2 3 -43 c4 -38 2 -43 -13
-39 -10 2 -18 -1 -18 -7 0 -15 -37 -14 -44 2 -3 6 -3 -1 1 -18 3 -16 12 -36
21 -42 14 -12 14 -13 0 -13 -23 0 -34 -20 -17 -31 8 -5 10 -9 4 -9 -5 1 -18 7
-28 15 -21 16 -47 10 -47 -11 0 -8 -5 -14 -11 -14 -6 0 -9 -8 -7 -17 4 -16 -1
-18 -39 -14 l-43 3 0 -81 c0 -74 -2 -81 -20 -81 -13 0 -20 -7 -20 -19 0 -11
-4 -23 -10 -26 -6 -4 -10 5 -10 19 0 14 -5 26 -11 26 -6 0 -9 -17 -7 -42 l3
-43 -42 3 c-39 3 -43 2 -43 -19 0 -21 1 -21 18 -6 23 21 32 21 32 2 0 -8 -6
-15 -13 -15 -7 0 -18 -9 -25 -20 -9 -15 -23 -20 -52 -20 -34 0 -40 -3 -40 -21
0 -18 2 -19 15 -9 27 22 27 4 0 -35 -14 -21 -25 -33 -25 -26 0 15 -27 14 -33
-1 -3 -10 -7 -10 -19 -1 -13 11 -15 7 -13 -31 1 -32 -2 -43 -12 -39 -20 8 -73
-20 -73 -38 0 -9 7 -20 17 -23 15 -6 14 -8 -2 -20 -10 -7 -15 -18 -12 -24 5
-6 0 -8 -13 -5 -24 6 -50 -13 -50 -37 0 -14 -7 -16 -50 -12 l-50 5 0 -42 c0
-22 4 -41 9 -41 13 0 22 -30 14 -43 -4 -7 -10 -2 -14 13 -6 22 -7 20 -8 -12
-1 -35 -3 -37 -38 -40 -37 -3 -38 -4 -41 -46 l-3 -44 -40 7 c-25 4 -39 3 -39
-4 0 -6 7 -11 15 -11 8 0 15 -5 15 -10 0 -6 -7 -13 -15 -16 -8 -4 -15 -12 -15
-20 0 -8 -8 -14 -18 -14 -23 0 -62 -32 -62 -52 0 -8 6 -20 13 -27 8 -9 8 -12
0 -7 -6 3 -14 0 -16 -6 -4 -10 -6 -10 -6 0 -1 15 -41 16 -41 1 0 -8 -4 -8 -13
-1 -10 8 -12 2 -12 -28 0 -28 3 -36 11 -29 8 6 14 4 18 -7 8 -22 8 -49 -1 -40
-5 4 -8 13 -8 19 0 8 -28 12 -93 11 l-92 0 0 33 c0 33 -8 41 -25 24 -6 -5 -28
-12 -50 -16 l-40 -7 21 20 c12 11 29 22 39 23 10 2 -26 5 -80 5 -62 1 -101 6
-103 13 -2 6 -18 11 -35 11 -52 0 -79 11 -72 28 4 12 -3 14 -42 9 -27 -2 -40
-3 -30 0 33 9 17 24 -18 17 -52 -9 -125 4 -125 23 0 13 -11 14 -76 8 -52 -5
-79 -3 -83 4 -4 6 -60 15 -127 20 -65 4 -99 9 -75 10 24 0 42 4 38 7 -3 4
-130 9 -282 11 -236 4 -275 3 -275 -10 0 -10 -17 -16 -61 -21 -93 -9 -99 -8
-99 14 0 22 -24 25 -115 10 l-50 -7 45 -3 45 -2 -55 -9 c-30 -5 -85 -6 -122
-2 -48 4 -68 2 -68 -6 0 -7 -37 -11 -119 -11 -110 0 -119 -1 -124 -20 -5 -18
-12 -20 -84 -15 -69 4 -72 3 -25 -4 29 -5 56 -12 60 -16 4 -4 -4 -5 -18 -2
-14 2 -59 1 -100 -3 -51 -5 -62 -8 -32 -9 23 0 42 -5 42 -11 0 -5 17 -10 39
-10 30 0 40 -4 44 -20 3 -11 1 -20 -4 -20 -5 0 -9 5 -9 11 0 7 -12 8 -32 4
-22 -4 -28 -3 -20 3 20 14 -19 22 -107 22 -55 0 -72 -3 -68 -13 3 -9 -6 -11
-34 -9 -27 3 -43 -1 -59 -16 -23 -22 -70 -35 -70 -20 0 19 -45 2 -55 -19 -10
-23 -20 -26 -112 -27 -17 -1 -34 -4 -38 -8 -10 -10 -35 17 -35 36 0 9 -3 15
-7 14 -5 -2 -8 2 -8 7 0 6 3 9 8 7 4 -1 7 23 7 53 l0 55 -40 0 c-33 0 -40 3
-40 20 0 17 -7 20 -46 20 -25 0 -43 4 -39 9 3 5 -3 25 -13 43 -14 24 -26 33
-44 33 -25 -1 -25 1 -20 59 l5 59 -57 -5 -56 -5 15 23 c8 13 15 31 15 41 -1
17 -1 17 -14 1 -18 -24 -36 -23 -36 2 0 11 -4 20 -9 20 -4 0 -29 20 -55 45
-38 37 -46 52 -46 81 0 35 -1 36 -30 31 -30 -7 -58 12 -81 56 -12 22 0 22 16
0 10 -14 13 -6 14 45 l1 62 -39 0 c-38 0 -39 1 -46 40 -6 34 -10 40 -32 40
-14 0 -32 -8 -39 -17 -13 -17 -13 -17 -14 0 0 9 -6 17 -12 17 -8 1 -6 6 5 14
9 7 17 19 17 27 0 14 -43 39 -66 39 -7 0 -15 -6 -18 -12 -3 -7 -3 -3 -1 8 6
25 -10 74 -25 74 -5 0 -10 -9 -10 -20 0 -11 -4 -20 -9 -20 -5 0 -11 9 -14 20
-3 12 -14 20 -27 20 -19 0 -20 1 -6 16 9 8 16 29 16 45 0 29 -1 30 -42 27
l-43 -3 3 43 4 44 -43 -4 -43 -3 3 43 c2 40 1 42 -25 42 -15 0 -38 -10 -51
-22 -13 -12 -23 -16 -23 -10 0 7 4 12 9 12 6 0 9 18 8 41 l-1 40 -38 -6 c-41
-7 -55 10 -15 18 12 2 -6 5 -40 6 l-63 1 0 -40z m-544 -1832 c-9 -237 -9 -219
1 -393 5 -82 12 -156 16 -162 5 -7 5 -13 2 -13 -3 0 -11 14 -17 31 -8 23 -13
27 -19 17 -7 -10 -9 -9 -9 5 0 9 5 17 10 17 6 0 10 11 10 25 0 14 -4 25 -10
25 -11 0 -14 632 -3 643 20 21 25 -25 19 -195z m5018 -2603 c3 -10 19 -15 46
-15 22 0 40 -4 40 -10 0 -5 18 -10 40 -10 30 0 40 -4 40 -16 0 -13 12 -15 88
-10 48 3 209 7 357 9 175 3 230 2 155 -3 -63 -4 -117 -8 -120 -10 -17 -9 74
-18 188 -19 125 -1 132 -2 132 -21 0 -16 7 -20 38 -20 l37 -1 -30 -13 -30 -13
38 -7 c21 -4 77 -7 125 -6 136 2 142 1 142 -15 0 -8 10 -25 22 -37 l21 -21
-21 -8 c-31 -12 -29 -38 2 -36 35 3 37 -17 3 -21 -18 -2 -27 -8 -24 -16 4 -10
-6 -12 -37 -10 l-43 4 1 -34 c1 -23 9 -41 25 -55 24 -21 24 -21 3 -21 -13 0
-22 6 -22 15 0 9 -9 15 -25 15 -14 0 -28 -7 -31 -15 -7 -18 -25 -20 -21 -2 1
8 -14 13 -45 15 l-48 3 0 -40 c0 -23 5 -41 11 -41 6 0 4 -7 -5 -15 -8 -8 -25
-15 -38 -14 -21 1 -21 2 7 14 l30 14 -36 1 c-25 0 -39 -5 -43 -16 -10 -27 -7
-34 17 -35 19 -1 19 -2 3 -6 -33 -9 -46 -26 -27 -39 13 -10 11 -11 -12 -7 -15
3 -27 9 -27 13 0 12 -61 10 -92 -3 -31 -13 -37 -41 -12 -51 28 -11 6 -20 -41
-17 -47 2 -70 -18 -47 -41 16 -16 -11 -38 -50 -39 -21 -1 -26 -3 -13 -6 34 -8
36 -18 5 -30 -28 -11 -30 -10 -30 13 0 21 -4 24 -40 24 -40 0 -40 0 -40 -39 0
-33 4 -40 23 -44 12 -3 -3 -3 -35 0 -51 5 -57 3 -63 -17 -4 -12 -4 -24 -1 -27
3 -4 6 1 6 10 0 10 8 17 20 17 11 0 20 -6 20 -14 0 -8 -9 -18 -20 -21 -22 -7
-26 -20 -10 -30 6 -3 10 -12 10 -18 0 -7 -7 -4 -15 7 -16 21 -45 15 -45 -9 0
-22 -21 -18 -27 5 -9 34 -23 22 -23 -20 0 -25 -5 -40 -13 -40 -7 0 -18 -9 -25
-20 -17 -27 -36 -26 -21 1 9 17 8 20 -3 17 -20 -7 -23 -67 -4 -74 9 -3 13 -10
10 -16 -4 -5 -11 -5 -19 2 -9 8 -14 4 -18 -19 -4 -19 -14 -30 -29 -34 l-23 -6
23 16 c25 18 30 53 6 53 -11 0 -14 -6 -9 -20 9 -27 -3 -25 -15 3 -7 19 -9 19
-9 3 -1 -13 -4 -16 -13 -8 -7 5 -29 13 -48 17 l-35 7 28 -25 c31 -30 33 -37
12 -37 -8 0 -15 5 -15 10 0 6 -4 10 -10 10 -18 0 -11 -26 15 -54 41 -44 28
-51 -19 -11 -33 29 -46 31 -46 10 0 -8 -14 -28 -30 -44 -29 -27 -34 -28 -100
-23 l-70 5 0 -41 c0 -37 -3 -41 -30 -47 -16 -4 -33 -4 -37 -2 -5 3 -8 -9 -9
-26 -1 -18 1 -26 3 -19 3 6 11 12 19 12 24 0 15 -17 -18 -34 -18 -8 -27 -16
-20 -16 6 0 12 -4 12 -8 0 -4 -18 -7 -40 -5 -29 1 -40 -2 -40 -12 0 -8 6 -12
14 -9 8 3 17 1 20 -4 3 -5 -3 -12 -14 -15 -23 -6 -27 -37 -5 -37 21 0 19 -19
-2 -27 -10 -3 -26 -15 -35 -27 -16 -19 -18 -19 -18 -3 0 9 11 23 25 29 l25 11
-22 15 c-12 9 -50 17 -85 20 l-64 4 2 -55 c2 -44 5 -54 17 -50 10 4 13 1 10
-8 -3 -8 -11 -13 -17 -12 -14 4 -15 -33 -1 -42 16 -10 11 -25 -7 -24 -11 0
-13 3 -5 6 6 2 10 9 6 14 -7 12 -84 12 -84 -1 0 -5 7 -10 15 -10 8 0 15 -5 15
-10 0 -6 -6 -10 -12 -9 -7 1 -32 1 -55 0 -35 -1 -43 -4 -43 -20 0 -11 6 -22
13 -25 6 -3 2 -3 -10 0 -13 3 -36 -2 -54 -13 -25 -15 -29 -23 -25 -44 4 -22 2
-26 -13 -22 -29 7 -60 -14 -68 -47 -5 -17 -8 79 -8 213 0 133 1 223 3 200 3
-39 6 -43 29 -43 l26 0 -8 73 c-11 95 -13 287 -3 281 5 -3 8 -12 8 -20 0 -8 7
-14 15 -14 13 0 15 12 11 73 -10 162 -11 215 -3 210 4 -2 7 5 7 16 0 12 5 21
10 21 6 0 11 12 11 28 l2 27 4 -27 c9 -57 23 -25 24 55 1 45 1 86 0 91 -1 6 1
21 6 35 5 18 10 -11 14 -94 l6 -120 1 125 c0 69 1 142 1 163 1 35 2 37 35 37
32 0 35 3 41 40 4 21 5 56 3 77 -3 35 -1 38 25 41 15 2 25 8 21 14 -8 13 27
78 42 78 6 0 18 10 27 23 15 22 15 22 32 2 16 -19 16 -19 12 16 -5 32 -3 36
13 32 27 -7 35 16 8 26 -22 9 -22 10 7 10 19 1 35 9 43 21 11 18 23 20 132 20
95 0 120 -3 120 -14 0 -9 8 -12 25 -8 15 2 25 0 25 -7 0 -6 -11 -11 -25 -11
-39 0 -32 -30 8 -31 19 -1 25 -3 13 -6 -15 -4 -16 -7 -5 -14 11 -6 8 -9 -8 -9
-13 0 -23 4 -23 8 0 14 -73 14 -81 0 -7 -10 -9 -10 -9 0 0 7 -15 12 -40 12
l-40 0 3 -75 c2 -64 -1 -76 -18 -89 -18 -13 -21 -30 -27 -143 -3 -70 -10 -138
-13 -151 -6 -18 -4 -22 11 -21 39 4 53 -1 48 -16 -9 -23 5 -65 21 -65 8 0 15
5 15 10 0 6 8 5 20 -2 11 -7 20 -20 20 -30 0 -9 6 -19 13 -22 10 -5 10 -7 0
-12 -7 -3 -13 -10 -13 -16 0 -14 56 -3 97 19 27 14 35 15 45 4 11 -11 9 -12
-9 -6 -17 5 -23 2 -23 -9 0 -9 -7 -16 -16 -16 -9 0 -14 -6 -12 -12 5 -16 43
-22 66 -12 33 15 101 31 96 22 -3 -4 13 -8 36 -8 29 0 39 4 34 12 -4 6 -3 8 4
4 6 -3 13 -2 17 4 10 15 65 42 65 31 0 -5 -10 -13 -22 -17 -52 -16 -53 -54 -1
-54 18 0 23 6 23 25 0 16 6 25 15 25 8 0 15 -4 15 -10 0 -5 11 -10 25 -10 16
0 25 6 25 15 0 8 5 15 10 15 6 0 10 -7 10 -15 0 -18 31 -20 48 -3 19 19 14 45
-10 52 l-23 6 25 13 c14 8 29 10 35 5 18 -16 45 -9 45 12 0 11 5 20 10 20 6 0
9 19 9 43 -1 23 -4 32 -6 20 -2 -13 -9 -23 -15 -23 -5 0 -8 10 -5 23 3 12 11
48 19 80 7 33 18 57 25 57 8 0 13 14 13 40 0 29 -4 40 -15 40 -11 0 -15 13
-15 55 0 30 -5 66 -12 80 l-12 26 -12 -28 -11 -28 -8 28 c-4 17 -13 26 -20 23
-8 -3 -11 2 -8 13 7 26 -41 75 -67 68 -11 -3 -18 -2 -15 3 3 4 -2 10 -10 14
-19 7 -19 26 0 26 8 0 15 6 15 14 0 21 -67 29 -219 25 -72 -2 -123 -1 -113 3
9 4 -20 7 -65 7 -48 1 -83 5 -83 11 0 6 33 10 80 10 47 0 80 4 80 10 0 6 -18
10 -40 10 -22 0 -40 5 -40 10 0 6 -19 11 -42 11 -24 1 -33 4 -20 6 12 2 22 9
22 14 0 15 27 10 34 -6z m-3415 -51 c33 -4 61 -10 61 -14 0 -4 -30 -10 -67
-14 -38 -4 -84 -9 -103 -11 -30 -4 -31 -3 -10 4 18 7 3 9 -57 10 -77 1 -83 0
-83 -19 0 -15 6 -20 23 -19 35 3 57 0 57 -9 0 -4 -15 -6 -34 -4 -36 4 -58 -14
-35 -29 14 -9 12 -10 -26 -13 -11 0 -19 -7 -17 -13 1 -7 -5 -13 -14 -13 -10 0
-14 6 -10 15 4 12 -5 15 -49 15 l-54 0 0 -74 c0 -55 4 -76 15 -80 8 -3 14 -13
14 -23 -1 -17 -1 -17 -14 0 -22 29 -36 20 -36 -23 0 -22 -4 -40 -10 -40 -5 0
-10 18 -10 40 0 28 -4 40 -14 40 -19 0 -30 -133 -21 -240 5 -58 11 -80 21 -80
9 0 14 12 15 38 0 20 4 46 9 57 6 14 9 4 9 -37 1 -44 5 -58 15 -58 11 0 13 -9
10 -37 l-6 -38 21 25 c18 23 20 23 27 6 4 -11 2 -21 -7 -27 -10 -6 -6 -9 14
-9 22 0 27 -4 27 -26 0 -23 2 -25 15 -14 22 19 44 -3 25 -25 -11 -13 -9 -15
11 -15 13 0 33 -7 43 -15 22 -16 66 -20 66 -6 0 5 12 11 28 13 15 3 36 9 46
13 14 6 17 5 12 -3 -5 -9 5 -12 34 -12 23 0 39 4 36 8 -2 4 5 8 17 9 12 0 16
-1 9 -4 -6 -3 -10 -9 -6 -14 3 -5 -26 -9 -68 -9 -76 0 -115 -12 -90 -29 15 -9
212 -24 220 -16 3 2 -1 11 -8 20 -20 24 -2 18 28 -10 41 -38 62 -33 62 15 0
25 -5 40 -12 40 -9 0 -8 3 2 10 12 7 11 12 -5 30 -14 16 -16 23 -7 32 9 9 12
7 12 -10 0 -19 5 -22 45 -22 38 0 45 3 45 20 0 17 7 20 40 20 l40 0 0 214 c-1
161 -4 221 -14 241 -12 22 -14 23 -20 8 -6 -15 -10 -13 -32 12 -15 18 -22 35
-18 47 6 20 -6 24 -24 6 -6 -6 -15 -8 -19 -4 -5 4 1 15 12 23 19 14 19 15 -11
11 -30 -4 -54 10 -54 32 0 5 5 10 10 10 15 0 12 30 -2 31 -10 0 -10 2 0 6 6 2
12 11 12 19 0 8 9 14 20 14 22 0 27 -15 8 -23 -20 -8 42 -7 94 2 26 4 45 4 42
-1 -3 -4 13 -8 35 -8 39 0 40 -1 43 -37 2 -28 8 -39 23 -42 17 -3 18 -1 6 13
-8 9 -11 19 -8 22 3 3 12 -3 19 -15 7 -12 18 -21 25 -21 7 0 13 -5 13 -11 0
-6 11 -20 25 -31 14 -11 25 -24 25 -30 0 -7 -11 -1 -25 12 l-25 24 4 -30 c2
-16 7 -39 11 -50 8 -25 48 -49 64 -40 7 5 11 -8 11 -38 0 -58 19 -61 22 -3 l1
42 4 -42 c3 -29 9 -43 19 -43 8 0 14 6 14 14 0 8 4 17 9 20 5 4 7 -36 4 -96
-5 -90 -4 -101 9 -90 13 10 14 5 10 -38 -4 -41 -2 -50 11 -50 11 0 17 12 20
43 2 23 4 5 5 -40 2 -84 15 -109 27 -52 5 23 10 28 18 20 8 -8 8 -14 2 -19 -6
-4 -10 -34 -10 -67 0 -33 -3 -109 -6 -170 -3 -60 -4 -93 -2 -72 2 20 8 37 14
37 5 0 9 15 9 33 0 38 10 77 19 77 4 0 5 -43 3 -95 -4 -83 -2 -95 12 -95 19 0
18 9 21 -245 2 -104 3 -199 4 -209 2 -36 14 -7 21 51 5 40 8 -15 11 -174 2
-127 2 -229 -1 -226 -3 2 -10 77 -16 166 l-11 162 1 -168 c0 -92 -2 -167 -6
-167 -5 0 -8 11 -8 24 0 13 -8 27 -17 30 -14 6 -15 9 -3 16 7 5 15 28 16 54 3
46 -3 55 -23 35 -21 -21 -53 12 -53 53 0 38 0 38 -40 38 -24 0 -40 -5 -40 -12
0 -9 -3 -9 -12 0 -22 22 -29 13 -8 -10 30 -32 24 -45 -7 -17 -15 13 -30 27
-33 31 -3 4 -17 5 -31 4 -20 -2 -25 1 -22 13 2 9 -9 30 -25 48 -22 24 -28 38
-24 58 5 31 -9 44 -48 45 -14 0 -34 7 -44 15 -11 8 -30 15 -42 15 -35 0 -38
17 -7 35 l28 16 -35 -5 c-19 -2 -29 -2 -22 1 6 2 12 13 12 24 0 15 -7 19 -39
19 -22 0 -41 -5 -43 -12 -3 -7 -17 2 -35 20 -17 18 -35 32 -39 31 -21 -4 -28
2 -14 11 13 9 13 11 0 20 -13 9 -13 11 0 20 12 7 12 12 2 22 -9 9 -15 9 -23 1
-9 -9 -21 -6 -48 13 -19 13 -46 24 -58 24 -30 0 -30 24 0 38 l22 11 -22 0
c-20 1 -23 6 -23 42 l0 40 -71 -4 c-55 -2 -75 1 -89 13 -14 12 -16 20 -8 28 6
6 8 18 4 28 -5 14 -16 16 -73 11 -64 -5 -65 -5 -34 10 38 19 40 44 4 61 -32
14 -83 16 -83 2 0 -5 -5 -10 -11 -10 -5 0 -7 5 -3 12 5 8 0 9 -14 6 -15 -4
-22 -2 -22 8 0 19 -25 18 -44 -2 -9 -8 -21 -12 -27 -9 -11 8 34 35 57 35 8 0
14 7 14 15 0 11 -7 14 -24 9 -37 -9 -64 10 -59 41 5 25 -10 35 -22 15 -3 -5
-10 -10 -16 -10 -5 0 -9 5 -9 10 0 6 6 10 13 10 7 0 18 9 25 20 10 17 10 20
-5 20 -10 0 -31 -9 -48 -20 -34 -22 -45 -25 -45 -10 0 6 7 10 16 10 8 0 12 5
9 10 -3 6 -21 10 -39 10 -26 0 -35 5 -39 21 -7 26 -53 23 -51 -4 1 -9 -4 -17
-12 -17 -8 0 -14 5 -14 10 0 16 37 48 53 47 9 -1 15 3 14 8 -1 6 -18 10 -37 9
-28 -1 -36 4 -40 20 -9 31 -52 28 -61 -4 -6 -20 -7 -17 -8 18 -1 33 -5 42 -18
42 -17 1 -17 1 0 14 31 24 21 38 -23 31 -26 -4 -40 -3 -40 4 0 6 6 11 13 11 6
0 21 8 32 16 18 14 15 15 -42 11 -45 -4 -67 -1 -83 10 -16 11 -19 18 -11 26
13 13 15 47 2 47 -5 0 -11 -7 -15 -15 -3 -8 -17 -15 -31 -15 -18 0 -25 -5 -25
-20 0 -11 5 -20 12 -20 6 0 9 -2 6 -5 -3 -3 -18 1 -34 10 -19 10 -23 15 -11
15 9 0 17 5 17 10 0 6 12 16 28 22 l27 12 -39 4 c-28 2 -42 -1 -48 -12 -5 -9
-17 -16 -26 -15 -14 0 -13 2 3 9 18 8 18 9 -5 10 l-25 2 25 8 c58 17 70 23 70
39 0 9 -5 22 -12 29 -17 17 -48 15 -48 -3 0 -8 -4 -15 -9 -15 -5 0 -11 7 -15
15 -3 8 -13 15 -22 15 -16 0 -16 -1 -1 -18 19 -21 22 -32 7 -32 -5 0 -10 5
-10 11 0 6 -7 17 -16 26 -14 14 -16 14 -28 -2 -13 -18 -36 -13 -36 7 0 6 6 5
16 -3 14 -11 15 -9 12 21 -3 30 -8 36 -40 45 -52 14 -53 21 -2 16 35 -2 44 0
44 13 0 10 -9 16 -25 16 -14 0 -25 4 -25 10 0 5 11 12 25 16 40 10 31 34 -12
35 -34 1 -35 2 -13 9 l25 8 -27 1 c-16 1 -28 6 -28 11 0 14 73 1 82 -15 5 -8
59 -12 179 -13 l172 -2 24 26 c12 14 23 32 23 40 0 11 23 14 123 16 67 1 138
3 157 3 19 1 73 3 120 5 71 3 79 4 45 10 -33 6 -30 7 20 5 48 -3 170 3 276 13
9 1 44 -1 78 -4z m1925 -2625 l-2 -53 -111 1 c-61 1 -120 2 -131 2 -17 1 -20
8 -20 41 l0 40 125 0 c107 0 125 2 125 16 0 8 3 13 8 10 4 -2 7 -28 6 -57z"/>
</g>
</svg>
